<svg viewBox="12 6 104 104" xmlns="http://www.w3.org/2000/svg" role="img" aria-label="Igloo">
  <title>Igloo</title>
  <defs>
    <linearGradient id="igloo-mark-gradient" x1="20" y1="22" x2="108" y2="92" gradientUnits="userSpaceOnUse">
      <stop offset="0" stop-color="#a883e6"/>
      <stop offset="0.52" stop-color="#c783d6"/>
      <stop offset="1" stop-color="#f287a1"/>
    </linearGradient>
  </defs>
  <path d="M20 96V71.5C20 41.6 39.3 18 64 18s44 23.6 44 53.5V96H83V73c0-11.2-8.5-20.2-19-20.2S45 61.8 45 73v23Z" fill="url(#igloo-mark-gradient)"/>
  <path d="M45 96V73c0-11.2 8.5-20.2 19-20.2S83 61.8 83 73v23Z" fill="#1b2232"/>
  <path d="M20 73c13.6-7.3 28.2-11 44-11s30.4 3.7 44 11M32 49.5c20.6 7.1 43.4 7.1 64 0M64 18c-8.2 13.1-12.4 30.8-12.4 53M64 18c8.2 13.1 12.4 30.8 12.4 53" fill="none" stroke="#1b2232" stroke-width="4.8" stroke-linecap="round"/>
  <path d="M58 56.8 76 67 58 77.2Z" fill="#f287a1"/>
</svg>
